<?xml version="1.0" encoding="UTF-8" standalone="no"?>
<!DOCTYPE svg PUBLIC "-//W3C//DTD SVG 1.1//EN" "http://www.w3.org/Graphics/SVG/1.1/DTD/svg11.dtd">
<svg width="100%" height="100%" viewBox="0 0 417 417" version="1.1" xmlns="http://www.w3.org/2000/svg" xmlns:xlink="http://www.w3.org/1999/xlink" xml:space="preserve" xmlns:serif="http://www.serif.com/" style="fill-rule:evenodd;clip-rule:evenodd;stroke-linejoin:round;stroke-miterlimit:2;">
    <circle cx="208.333" cy="208.333" r="208.333" style="fill:rgb(235,235,235);"/>
    <path d="M208.333,0C323.316,0 416.667,93.351 416.667,208.333C416.667,323.316 323.316,416.667 208.333,416.667C93.351,416.667 0,323.316 0,208.333C0,93.351 93.351,0 208.333,0ZM208.333,4.167C321.016,4.167 412.5,95.651 412.5,208.333C412.5,321.016 321.016,412.5 208.333,412.5C95.651,412.5 4.167,321.016 4.167,208.333C4.167,95.651 95.651,4.167 208.333,4.167Z" style="fill:rgb(211,211,211);"/>
    <g transform="matrix(1,0,0,1,37.8333,-13.1667)">
        <rect x="156" y="116" width="29" height="211" style="fill:rgb(0,153,255);"/>
    </g>
    <g transform="matrix(6.12323e-17,1,-1,6.12323e-17,429.833,37.8333)">
        <rect x="156" y="116" width="29" height="211" style="fill:rgb(0,153,255);"/>
    </g>
</svg>
