<?xml version="1.0" encoding="UTF-8" standalone="no"?>
<!DOCTYPE svg PUBLIC "-//W3C//DTD SVG 1.1//EN" "http://www.w3.org/Graphics/SVG/1.1/DTD/svg11.dtd">
<svg width="100%" height="100%" viewBox="0 0 539 762" version="1.1" xmlns="http://www.w3.org/2000/svg" xmlns:xlink="http://www.w3.org/1999/xlink" xml:space="preserve" xmlns:serif="http://www.serif.com/" style="fill-rule:evenodd;clip-rule:evenodd;stroke-linejoin:round;stroke-miterlimit:2;">
    <g transform="matrix(1,0,0,1,-114.606,-290)">
        <path d="M653.394,290L653.394,1052L114.606,1052L114.606,290L445.394,290L653.394,500.394L653.394,290Z" style="fill:rgb(97,208,159);"/>
        <clipPath id="_clip1">
            <path d="M653.394,290L653.394,1052L114.606,1052L114.606,290L445.394,290L653.394,500.394L653.394,290Z"/>
        </clipPath>
        <g clip-path="url(#_clip1)">
            <g transform="matrix(1,0,0,0.539683,-5,188.111)">
                <rect x="182" y="476" width="414" height="63" style="fill:rgb(188,255,225);"/>
            </g>
            <g transform="matrix(1,0,0,0.539683,-5,267.111)">
                <rect x="182" y="476" width="414" height="63" style="fill:rgb(188,255,225);"/>
            </g>
            <g transform="matrix(0.642512,0,0,0.539683,60.0628,346.111)">
                <rect x="182" y="476" width="414" height="63" style="fill:rgb(188,255,225);"/>
            </g>
            <g transform="matrix(0.835749,0,0,0.539683,24.8937,504.111)">
                <rect x="182" y="476" width="414" height="63" style="fill:rgb(188,255,225);"/>
            </g>
            <g transform="matrix(0.886473,0,0,0.539683,15.6618,583.111)">
                <rect x="182" y="476" width="414" height="63" style="fill:rgb(188,255,225);"/>
            </g>
            <g transform="matrix(1,0,0,0.539683,-5,425.111)">
                <rect x="182" y="476" width="414" height="63" style="fill:rgb(188,255,225);"/>
            </g>
            <g transform="matrix(0.442029,0,0,0.539683,96.5507,662.111)">
                <rect x="182" y="476" width="414" height="63" style="fill:rgb(188,255,225);"/>
            </g>
            <g transform="matrix(0,1,-1,0,956.394,-129)">
                <path d="M629.394,303L629.394,511L419,511L629.394,303Z" style="fill:rgb(102,173,142);"/>
            </g>
        </g>
    </g>
</svg>
